<?xml version="1.0" standalone="no"?>
<!DOCTYPE svg PUBLIC "-//W3C//DTD SVG 20010904//EN"
 "http://www.w3.org/TR/2001/REC-SVG-20010904/DTD/svg10.dtd">
<svg version="1.0" xmlns="http://www.w3.org/2000/svg"
 width="567.000000pt" height="567.000000pt" viewBox="0 0 567.000000 567.000000"
 preserveAspectRatio="xMidYMid meet">
<metadata>
Created by potrace 1.11, written by Peter Selinger 2001-2013
</metadata>
<g transform="translate(0.000000,567.000000) scale(0.100000,-0.100000)"
fill="#000000" stroke="none">
<path d="M0 2835 l0 -2525 2835 0 2835 0 0 2525 0 2525 -2835 0 -2835 0 0
-2525z m5150 30 l0 -2215 -2310 0 -2310 0 0 355 0 355 30 0 30 0 0 -325 0
-325 2250 0 2250 0 0 2155 0 2155 -2250 0 -2250 0 0 -330 0 -330 -30 0 -30 0
0 360 0 360 2310 0 2310 0 0 -2215z m-3640 288 c0 -841 -3 -919 -36 -1048 -44
-175 -151 -302 -296 -352 -110 -38 -270 -34 -384 8 -114 43 -216 175 -258 334
-19 71 -43 291 -33 301 4 4 53 15 109 24 117 20 118 20 118 -52 0 -113 42
-250 94 -306 65 -73 199 -89 294 -38 67 38 102 84 126 171 19 67 20 111 24
938 l3 867 120 0 119 0 0 -847z m1401 805 c6 -24 105 -385 219 -803 115 -418
226 -827 248 -909 l39 -149 32 119 c28 103 483 1719 497 1767 5 15 22 17 170
17 l164 0 0 -1120 0 -1121 -117 3 -118 3 -3 915 -3 915 -262 -915 -262 -915
-107 -3 c-94 -2 -108 -1 -116 15 -5 10 -123 429 -263 932 l-254 914 -5 -929
-5 -929 -117 -3 -118 -3 0 1121 0 1120 185 0 184 0 12 -42z"/>
</g>
</svg>
